<svg width="50" height="50" viewBox="0 0 50 50" fill="none" xmlns="http://www.w3.org/2000/svg">
<rect width="50" height="50" rx="25" fill="#C2A474"/>
<path d="M6.232 18.912V17.568H8.152V13.728H9.496V14.688H11.032V14.112H10.264V13.728H11.416V15.072H9.112V14.112H8.536V17.952H6.616V18.528H7.384V18.912H6.232ZM3.352 20.832V18.528H5.272V15.648H6.616V16.608H7.192V14.112H6.616V15.072H3.736V17.568H4.312V15.84H4.696V17.952H3.352V14.688H6.232V13.728H7.576V16.992H6.232V16.032H5.656V18.912H3.736V20.448H4.312V19.488H5.656V20.448H6.232V19.488H7.576V20.448H8.152V18.528H9.496V19.488H10.456V20.448H11.992V18.528H12.952V17.568H14.872V16.032H14.296V16.992H11.032V16.032H10.456V16.992H9.112V15.84H9.496V16.608H10.072V15.648H11.416V16.608H13.912V15.648H15.256V17.952H13.336V18.912H12.376V20.832H10.072V19.872H9.112V18.912H8.536V20.832H7.192V19.872H6.616V20.832H5.272V19.872H4.696V20.832H3.352ZM4.504 14.112V13.728H5.464V14.112H4.504ZM19.672 20.832V19.872H18.712V17.952H17.752V16.992H15.832V14.112H15.256V15.072H13.336V16.032H11.992V13.728H14.104V14.112H12.376V15.648H12.952V14.688H14.872V13.728H16.216V16.608H18.136V17.568H19.096V19.488H20.056V20.448H20.632V18.912H19.672V17.568H20.632V16.992H19.672V15.648H21.592V15.072H20.632V14.112H17.176V14.688H18.136V15.648H19.096V16.8H18.712V16.032H17.752V15.072H16.792V13.728H21.016V14.688H21.976V16.032H20.056V16.608H21.016V17.952H20.056V18.528H21.016V20.832H19.672ZM21.784 14.112V13.728H22.744V14.112H21.784ZM21.592 17.952V16.608H22.552V14.688H23.704V15.072H22.936V16.992H21.976V17.568H23.512V15.84H23.896V17.952H21.592ZM18.904 15.072V14.688H19.864V15.072H18.904ZM10.264 18.912V18.528H11.032V17.568H12.184V17.952H11.416V18.912H10.264ZM9.304 17.952V17.568H10.264V17.952H9.304ZM15.832 20.832V19.68H16.216V20.448H16.792V18.912H15.832V17.76H16.216V18.528H17.176V20.832H15.832ZM14.104 18.912V18.528H15.064V18.912H14.104ZM21.592 20.832V19.488H23.512V18.912H22.744V18.528H23.896V19.872H21.976V20.448H22.744V20.832H21.592ZM17.752 19.68V18.72H18.136V19.68H17.752ZM12.952 27.552V26.592H10.072V22.752H9.112V21.408H11.416V22.368H13.336V23.328H15.832V22.368H16.792V21.792H14.872V19.872H14.296V21.792H12.184V21.408H13.912V19.488H15.256V21.408H17.176V22.752H16.216V23.712H12.952V22.752H11.032V21.792H9.496V22.368H10.456V26.208H13.336V27.168H14.104V27.552H12.952ZM12.952 20.64V19.68H13.336V20.64H12.952ZM17.944 20.832V20.448H18.904V20.832H17.944ZM14.104 22.752V22.368H15.064V22.752H14.104ZM11.224 25.632V25.248H11.992V24.672H11.032V23.328H12.184V23.712H11.416V24.288H12.376V25.632H11.224ZM9.112 26.4V23.52H9.496V26.4H9.112ZM12.952 36.192V35.232H11.992V33.888H13.912V32.928H15.256V34.08H14.872V33.312H14.296V34.272H12.376V34.848H13.336V35.808H14.872V34.848H16.216V35.808H16.792V34.272H15.832V32.928H16.792V32.352H13.336V33.312H11.992V30.432H10.072V29.088H11.992V28.128H14.872V26.592H13.912V25.632H12.952V24.288H15.256V25.248H15.832V24.288H16.792V23.52H17.176V24.672H16.216V25.632H14.872V24.672H13.336V25.248H14.296V26.208H15.256V28.512H12.376V29.472H10.456V30.048H12.376V32.928H12.952V31.968H17.176V33.312H16.216V33.888H17.176V36.192H15.832V35.232H15.256V36.192H12.952ZM16.792 26.4V25.44H17.176V26.4H16.792ZM16.024 28.512V28.128H16.792V27.552H15.832V26.4H16.216V27.168H17.176V28.512H16.024ZM11.032 36.192V31.392H9.112V27.168H10.456V28.128H11.032V27.168H12.184V27.552H11.416V28.512H10.072V27.552H9.496V31.008H11.416V35.808H12.184V36.192H11.032ZM12.952 31.392V29.088H14.104V29.472H13.336V31.008H13.912V30.048H14.872V29.088H16.216V30.24H15.832V29.472H15.256V30.432H14.296V31.392H12.952ZM16.792 30.24V29.28H17.176V30.24H16.792ZM15.064 31.392V31.008H16.984V31.392H15.064ZM9.112 34.272V33.12H9.496V33.888H10.072V32.352H9.304V31.968H10.456V34.272H9.112ZM9.112 36.192V34.848H10.264V35.232H9.496V35.808H10.264V36.192H9.112ZM27.2825 14.112V13.728H28.2425V14.112H27.2825ZM31.8905 17.952V14.112H31.3145V16.032H30.3545V16.992H29.0105V16.032H28.0505V14.688H29.0105V13.728H30.1625V14.112H29.3945V15.072H28.4345V15.648H29.3945V16.608H29.9705V15.648H30.9305V13.728H32.2745V17.568H32.8505V13.92H33.2345V17.952H31.8905ZM44.5625 14.112V13.728H45.5225V14.112H44.5625ZM33.8105 22.752V21.792H32.8505V18.72H33.2345V21.408H34.1945V22.368H34.7705V18.528H37.6505V16.992H36.6905V15.648H38.6105V14.688H39.9545V15.648H40.5305V14.112H38.8025V13.728H40.9145V16.032H39.5705V15.072H38.9945V16.032H37.0745V16.608H38.0345V18.912H35.1545V22.752H33.8105ZM38.6105 18.912V17.568H39.5705V16.608H40.7225V16.992H39.9545V17.952H38.9945V18.528H40.5305V17.568H41.4905V13.728H42.8345V15.648H43.4105V14.688H44.7545V15.84H44.3705V15.072H43.7945V16.032H42.4505V14.112H41.8745V17.952H40.9145V18.912H38.6105ZM29.9705 19.872V17.952H26.1305V14.688H27.4745V16.608H28.2425V16.992H27.0905V15.072H26.5145V17.568H30.3545V19.488H30.9305V18.528H32.2745V19.68H31.8905V18.912H31.3145V19.872H29.9705ZM45.3305 15.84V14.88H45.7145V15.84H45.3305ZM39.5705 22.752V20.448H40.7225V20.832H39.9545V22.368H40.5305V21.408H41.4905V20.448H42.4505V16.608H43.7945V19.68H43.4105V16.992H42.8345V20.832H41.8745V21.792H40.9145V22.752H39.5705ZM30.9305 17.76V16.8H31.3145V17.76H30.9305ZM35.7305 17.76V16.8H36.1145V17.76H35.7305ZM44.3705 17.76V16.8H44.7545V17.76H44.3705ZM28.2425 20.832V20.448H29.0105V19.872H28.0505V18.912H26.5145V19.68H26.1305V18.528H28.4345V19.488H29.3945V20.832H28.2425ZM41.4905 19.68V18.72H41.8745V19.68H41.4905ZM33.8105 24.672V23.52H34.1945V24.288H35.7305V22.368H36.6905V21.408H37.6505V20.832H36.6905V19.488H38.9945V21.6H38.6105V19.872H37.0745V20.448H38.0345V21.792H37.0745V22.752H36.1145V24.672H33.8105ZM39.7625 19.872V19.488H40.7225V19.872H39.7625ZM35.7305 21.6V19.68H36.1145V21.6H35.7305ZM28.0505 32.352V31.2H28.4345V31.968H29.0105V31.008H29.9705V30.432H26.1305V27.168H27.4745V28.128H28.0505V27.168H29.0105V26.592H28.0505V24.288H29.3945V25.248H29.9705V24.288H31.8905V20.832H30.3545V21.792H27.0905V20.832H26.5145V23.328H27.0905V22.368H29.3945V23.712H28.2425V23.328H29.0105V22.752H27.4745V23.712H26.1305V20.448H27.4745V21.408H29.9705V20.448H32.2745V24.672H30.3545V25.632H29.0105V24.672H28.4345V26.208H29.3945V27.552H28.4345V28.512H27.0905V27.552H26.5145V30.048H30.3545V31.392H29.3945V32.352H28.0505ZM34.7705 27.552V25.44H35.1545V27.168H36.6905V26.592H35.7305V25.248H37.6505V22.368H38.9945V23.328H40.7225V23.712H38.6105V22.752H38.0345V25.632H36.1145V26.208H37.0745V27.552H34.7705ZM29.9705 23.712V22.368H31.1225V22.752H30.3545V23.328H31.1225V23.712H29.9705ZM31.8905 26.592V25.44H32.2745V26.208H32.8505V22.56H33.2345V26.592H31.8905ZM36.6905 24.48V23.52H37.0745V24.48H36.6905ZM41.4905 36.192V30.24H41.8745V35.808H44.3705V34.272H43.4105V32.352H42.4505V31.008H43.4105V30.432H42.4505V28.512H41.8745V29.472H40.5305V25.632H39.9545V30.048H40.9145V31.392H38.6105V30.432H38.0345V31.392H35.7305V30.048H36.6905V28.128H37.6505V26.208H38.6105V24.288H40.7225V24.672H38.9945V26.592H38.0345V28.512H37.0745V30.432H36.1145V31.008H37.6505V30.048H38.9945V31.008H40.5305V30.432H39.5705V25.248H40.9145V29.088H41.4905V28.128H42.8345V30.048H43.7945V31.392H42.8345V31.968H43.7945V33.888H44.7545V36.192H41.4905ZM26.1305 26.592V24.48H26.5145V26.208H27.0905V24.48H27.4745V26.592H26.1305ZM30.9305 27.552V26.592H30.3545V27.36H29.9705V26.208H31.3145V27.168H33.8105V25.44H34.1945V27.552H30.9305ZM41.4905 27.36V26.4H41.8745V27.36H41.4905ZM37.8425 29.472V29.088H38.6105V27.36H38.9945V29.472H37.8425ZM31.8905 31.392V29.472H30.9305V28.512H29.3945V29.088H30.1625V29.472H29.0105V28.128H31.3145V29.088H32.2745V31.008H32.8505V29.28H33.2345V31.392H31.8905ZM32.0825 28.512V28.128H35.9225V28.512H32.0825ZM27.2825 29.472V29.088H28.2425V29.472H27.2825ZM34.9625 29.472V29.088H35.9225V29.472H34.9625ZM30.9305 31.2V30.24H31.3145V31.2H30.9305ZM34.7705 31.2V30.24H35.1545V31.2H34.7705ZM26.1305 33.312V31.008H27.4745V32.16H27.0905V31.392H26.5145V32.928H27.2825V33.312H26.1305ZM44.3705 32.16V31.2H44.7545V32.16H44.3705ZM30.9305 36.192V34.848H32.8505V34.272H31.8905V32.928H32.8505V32.352H31.3145V34.08H30.9305V31.968H33.2345V33.312H32.2745V33.888H33.2345V35.232H31.3145V35.808H33.0425V36.192H30.9305ZM40.5305 34.08V33.312H39.5705V32.352H38.0345V33.312H36.6905V32.16H37.0745V32.928H37.6505V31.968H39.9545V32.928H40.9145V34.08H40.5305ZM28.0505 34.272V32.928H29.9705V32.16H30.3545V33.312H28.4345V33.888H29.2025V34.272H28.0505ZM35.7305 33.12V32.16H36.1145V33.12H35.7305ZM44.5625 33.312V32.928H45.5225V33.312H44.5625ZM37.6505 36.192V34.848H38.8025V35.232H38.0345V35.808H40.5305V35.232H39.5705V34.272H38.6105V33.12H38.9945V33.888H39.9545V34.848H40.9145V36.192H37.6505ZM42.4505 34.08V33.12H42.8345V34.08H42.4505ZM26.1305 36.192V33.888H27.4745V34.848H30.3545V36.192H28.2425V35.808H29.9705V35.232H27.0905V34.272H26.5145V35.808H27.2825V36.192H26.1305ZM36.8825 34.272V33.888H37.8425V34.272H36.8825ZM45.5225 36.192V35.808H46.2905V35.232H45.3305V34.08H45.7145V34.848H46.6745V36.192H45.5225ZM42.6425 35.232V34.848H43.6025V35.232H42.6425Z" fill="black"/>
</svg>
